<svg xmlns="http://www.w3.org/2000/svg" viewBox="0 0 512 512">
  <rect width="512" height="512" fill="#0d9488" rx="96"/>
  <path d="M256 128c-35.3 0-64 28.7-64 64v96c0 35.3 28.7 64 64 64s64-28.7 64-64v-96c0-35.3-28.7-64-64-64zm-128 64c-35.3 0-64 28.7-64 64v96c0 35.3 28.7 64 64 64s64-28.7 64-64v-96c0-35.3-28.7-64-64-64zm256 0c-35.3 0-64 28.7-64 64v96c0 35.3 28.7 64 64 64s64-28.7 64-64v-96c0-35.3-28.7-64-64-64z" fill="white"/>
  <path d="M256 96c-44.2 0-80 35.8-80 80v48h160v-48c0-44.2-35.8-80-80-80z" fill="white" opacity="0.3"/>
  <circle cx="256" cy="352" r="48" fill="white"/>
  <path d="M256 160c-17.7 0-32 14.3-32 32v32h64v-32c0-17.7-14.3-32-32-32z" fill="#0d9488"/>
</svg>
